<?xml version="1.0" encoding="UTF-8"?>
<svg version="1.1" xmlns="http://www.w3.org/2000/svg" width="512" height="512">
<path d="M0 0 C0.99667399 -0.00384115 1.99334798 -0.00768229 3.02022421 -0.01163983 C4.11815782 -0.01077335 5.21609143 -0.00990687 6.34729576 -0.00901413 C7.51140492 -0.01198525 8.67551408 -0.01495637 9.87489927 -0.01801753 C13.1116043 -0.02520498 16.34827703 -0.02787741 19.58498883 -0.028615 C23.07389945 -0.03046466 26.56279854 -0.03801166 30.0517025 -0.04475021 C37.68411555 -0.05833904 45.31652334 -0.06435941 52.94894648 -0.06876087 C57.71518789 -0.07152297 62.48142727 -0.07576033 67.24766731 -0.08026505 C80.44471738 -0.09245958 93.64176583 -0.10275778 106.83882141 -0.10614014 C108.10612251 -0.10646949 108.10612251 -0.10646949 109.39902564 -0.10680549 C110.66936318 -0.10713291 110.66936318 -0.10713291 111.9653641 -0.10746694 C113.68149098 -0.1079104 115.39761786 -0.10835697 117.11374474 -0.10880661 C117.96500326 -0.10902804 118.81626179 -0.10924947 119.69331603 -0.10947761 C133.48017059 -0.1134238 147.26697225 -0.13087153 161.05380638 -0.15416613 C175.20961226 -0.17789095 189.36539162 -0.19034254 203.5212177 -0.19150805 C211.46868099 -0.1924243 219.41607538 -0.19816375 227.36351967 -0.21632767 C234.13271037 -0.23174407 240.90181089 -0.23684014 247.67101581 -0.22858956 C251.12327386 -0.22468818 254.57535038 -0.22558736 258.02758598 -0.23964691 C261.77509979 -0.25233851 265.52214849 -0.24650406 269.26965904 -0.23606491 C270.35420832 -0.24412132 271.4387576 -0.25217772 272.55617201 -0.26047826 C281.95583953 -0.19928978 289.42137184 1.36337128 296.18942833 8.13142776 C302.41013609 16.25290734 302.53491652 23.98658195 302.50510216 33.81648636 C302.50194693 35.99359326 302.52542033 38.16933259 302.55075645 40.34627151 C302.59704572 50.27467905 301.83998055 57.9516757 294.88474083 65.58845901 C292.22546284 68.00876962 289.39940063 69.52644162 286.18942833 71.13142776 C286.52974083 71.73986526 286.87005333 72.34830276 287.22067833 72.97517776 C291.79112794 81.24088451 296.08577643 89.62575087 300.18942833 98.13142776 C300.48462364 98.74018753 300.77981895 99.3489473 301.08395958 99.97615433 C309.85770884 118.3148928 315.66609577 137.90563881 320.37692833 157.63142776 C320.67333214 158.85394241 320.96973595 160.07645706 321.27512169 161.33601761 C322.10140199 164.92746242 322.85137756 168.52303692 323.57804203 172.13541794 C324.00768497 174.24082083 324.45066098 176.34352545 324.90337658 178.44408798 C330.30779331 203.90837593 331.06175933 228.71292931 330.92951822 254.68050075 C330.90643948 260.29480129 330.91513628 265.90907625 330.91901207 271.5234108 C330.9207608 280.91509041 330.89895429 290.30647647 330.86179161 299.69807816 C330.8191972 310.52377438 330.8125069 321.34904618 330.82491553 332.1748094 C330.83632283 342.66940857 330.82500618 353.16385991 330.80256844 363.65843773 C330.79333181 368.09474893 330.79150412 372.53096892 330.79574013 376.96728706 C330.79952273 382.17906978 330.78317061 387.39042319 330.75161934 392.602108 C330.74318445 394.5047344 330.74139807 396.40740458 330.74699974 398.31004143 C330.77998906 411.52389448 330.23141725 423.54177693 321.22849083 434.09627151 C309.94531742 445.35782965 297.87751186 446.51037276 282.64990807 446.53801346 C280.5804797 446.53218207 278.5110522 446.52603766 276.4416256 446.51961136 C274.23962202 446.52368094 272.03762048 446.52902499 269.83562279 446.53554153 C263.88159869 446.54916923 257.92773126 446.54393675 251.97370458 446.53440428 C245.73757913 446.52679082 239.50146679 446.53385735 233.26534081 446.53856277 C222.13294679 446.54436119 211.00061428 446.53506591 199.86823242 446.51978476 C189.77547423 446.50636005 179.68281946 446.5087312 169.5900631 446.52254105 C157.85395924 446.53859207 146.11790572 446.54457527 134.38179058 446.53570426 C128.17450757 446.53102416 121.96729584 446.53041278 115.7600174 446.54031372 C109.93145756 446.54896247 104.1030938 446.54299975 98.27455521 446.52563095 C96.1331407 446.52165621 93.99170976 446.52281695 91.85030174 446.52941895 C88.93342058 446.53758466 86.01717277 446.52737336 83.10033226 446.51237869 C82.24791452 446.51907086 81.39549679 446.52576302 80.51724821 446.53265798 C77.15282246 446.49897657 74.66834845 446.39466879 71.68718433 444.75605583 C69.65669573 442.5535684 69.33138621 441.11254318 69.18942833 438.13142776 C70.00192833 435.38142776 70.00192833 435.38142776 71.18942833 433.13142776 C73.8282751 431.81200438 75.78867574 432.00852906 78.74487877 432.01117325 C80.51597511 432.00911125 80.51597511 432.00911125 82.32285118 432.0070076 C83.62476402 432.01060287 84.92667686 432.01419815 86.26804161 432.01790237 C87.6476294 432.01818433 89.02721734 432.01802634 90.40680504 432.01745987 C94.15864614 432.01717223 97.91045545 432.02306356 101.66228914 432.03003383 C105.58074757 432.03627292 109.49920667 432.03687161 113.4176693 432.03805923 C120.84079649 432.04117091 128.263909 432.04938209 135.68702972 432.05940872 C145.71580337 432.07266168 155.74458101 432.07807109 165.77336121 432.08391094 C181.57872791 432.09332208 197.38406364 432.1132421 213.18942833 432.13142776 C213.18942833 411.67142776 213.18942833 391.21142776 213.18942833 370.13142776 C208.54525841 370.15237503 203.90108849 370.1733223 199.11618614 370.19490433 C183.79728011 370.2610887 168.47836856 370.3055325 153.15935707 370.33867645 C143.86852551 370.35931173 134.57782928 370.38745071 125.28708458 370.43318558 C117.19034128 370.47302386 109.09369598 370.49885355 100.9968574 370.50778174 C96.70862178 370.51300162 92.42066654 370.52529006 88.13252068 370.55434799 C84.09746965 370.58146971 80.06281487 370.58987943 76.02768135 370.58385849 C74.5457869 370.58496019 73.06387939 370.59293369 71.58206367 370.60824966 C69.56043362 370.62812262 67.53859162 370.62098873 65.51688194 370.61244583 C64.38492016 370.616133 63.25295837 370.61982018 62.08669472 370.62361908 C58.52503354 370.01855953 57.34892326 368.97958649 55.18942833 366.13142776 C54.68942833 363.13142776 54.68942833 363.13142776 55.18942833 360.13142776 C57.34892326 357.28326904 58.52503354 356.244296 62.08669472 355.63923645 C63.2186565 355.64292362 64.35061829 355.64661079 65.51688194 355.6504097 C67.46879951 355.64216171 67.46879951 355.64216171 69.46014977 355.6337471 C70.90018641 355.6479029 72.34021934 355.66244213 73.78024864 355.6773262 C75.29806043 355.67845461 76.8158744 355.67782095 78.33368492 355.67555618 C82.45334251 355.67440782 86.5725349 355.69793654 90.69208431 355.72585201 C94.99755118 355.75084551 99.30302853 355.75320604 103.60855675 355.75795364 C111.76128214 355.77038947 119.91379316 355.80321925 128.06642413 355.8433516 C137.34805125 355.88805046 146.62968856 355.9100516 155.9113965 355.93013334 C175.00419535 355.97195139 194.09679461 356.0423152 213.18942833 356.13142776 C213.18297578 355.41585457 213.17652323 354.70028137 213.16987514 353.96302414 C213.01352028 336.34073975 212.89860866 318.71863714 212.82674313 301.09580612 C212.79104266 292.57259061 212.74241745 284.0498499 212.66135216 275.52693558 C211.9889457 203.37823419 211.9889457 203.37823419 220.18942833 170.13142776 C220.80993703 167.43937597 221.41291542 164.74347954 222.01584435 162.04744339 C225.53711592 146.43605258 225.53711592 146.43605258 227.18942833 143.13142776 C146.00942833 143.13142776 64.82942833 143.13142776 -18.81057167 143.13142776 C-19.47057167 146.43142776 -20.13057167 149.73142776 -20.81057167 153.13142776 C-21.33017416 155.51102463 -21.85818584 157.88880852 -22.39650917 160.26424026 C-22.6911084 161.58057306 -22.985367 162.89698213 -23.27932167 164.21345901 C-23.87023826 166.85539103 -24.46759877 169.49559991 -25.06838417 172.13533401 C-26.03969761 176.45605246 -26.93333685 180.79075169 -27.81057167 185.13142776 C-27.98889534 185.99003403 -28.16721901 186.84864029 -28.35094643 187.73326492 C-31.85729603 204.96394819 -32.3808164 221.77489597 -32.37307167 239.31892776 C-32.37668881 243.24352721 -32.38618734 247.16768999 -32.4138279 251.09219742 C-32.4305376 253.50725101 -32.43355449 255.92245043 -32.42081642 258.33752823 C-32.42769981 259.42088959 -32.43458321 260.50425095 -32.44167519 261.62044144 C-32.44071342 262.56731323 -32.43975166 263.51418503 -32.43876076 264.48974991 C-32.92563133 267.94891467 -34.32514139 270.64599749 -36.81057167 273.13142776 C-43.0477787 273.71984352 -43.0477787 273.71984352 -46.00670815 271.43733597 C-48.16070803 268.68384274 -48.32497545 267.38315032 -48.35988808 263.92439651 C-48.37867516 262.87838272 -48.39746223 261.83236893 -48.41681862 260.75465775 C-48.41527275 259.62086685 -48.41372688 258.48707596 -48.41213417 257.31892776 C-48.42319695 256.13438004 -48.43425972 254.94983231 -48.44565773 253.72938919 C-48.46926989 249.86291786 -48.4564823 245.99790152 -48.43557167 242.13142776 C-48.43292305 240.81622147 -48.43027443 239.50101517 -48.42754555 238.14595413 C-48.34838213 217.26911257 -46.89827895 197.43719887 -42.25380898 177.09462357 C-41.80393668 175.10203994 -41.37497645 173.10599376 -40.95217323 171.10750198 C-34.18853658 139.19262813 -25.28449988 103.99123243 -6.51760292 76.69392776 C-4.62576921 74.36718256 -4.62576921 74.36718256 -4.81057167 72.13142776 C-5.98619667 71.76017776 -7.16182167 71.38892776 -8.37307167 71.00642776 C-15.91909734 68.14828707 -20.3604813 63.29700007 -23.81057167 56.13142776 C-25.66465666 50.5691728 -25.03533886 44.40002179 -25.05080605 38.59724808 C-25.0604787 36.40252169 -25.09151024 34.20874587 -25.12307167 32.01424026 C-25.19906368 22.09866196 -24.53531497 14.30783418 -17.56057167 6.67049026 C-12.64016053 2.3431644 -6.5032996 0.00939559 0 0 Z M-8.68557167 19.13142776 C-11.66412429 24.42663242 -11.03270799 30.04031075 -11.06057167 35.94392776 C-11.08119667 37.02480667 -11.10182167 38.10568558 -11.12307167 39.21931839 C-11.15105251 44.91691681 -11.14283904 49.26243515 -7.81057167 54.13142776 C-4.15423734 57.44498075 -0.95162647 58.25568432 3.89905834 58.26285553 C4.87319866 58.26669667 5.84733898 58.27053782 6.8509987 58.27449536 C7.92374203 58.27362888 8.99648536 58.2727624 10.10173607 58.27186966 C11.80819755 58.27632634 11.80819755 58.27632634 13.549133 58.28087306 C17.38146861 58.28958153 21.21377305 58.29107012 25.04611778 58.29256058 C27.78556058 58.29664829 30.52500008 58.30219088 33.26444054 58.30760574 C40.72103789 58.32119268 48.17762986 58.32721431 55.63423753 58.3316164 C60.28922912 58.33437814 64.94421864 58.33861537 69.59920883 58.34312057 C82.48487054 58.35531358 95.37053058 58.36561292 108.25619793 58.36899567 C109.08104673 58.36921523 109.90589554 58.3694348 110.75573976 58.36966102 C111.99598991 58.36998843 111.99598991 58.36998843 113.26129562 58.37032247 C114.93680275 58.37076593 116.61230987 58.3712125 118.287817 58.37166214 C119.11892816 58.37188357 119.95003931 58.372105 120.80633565 58.37233314 C134.2751244 58.37628166 147.74385906 58.39373718 161.21262691 58.41702166 C175.03732473 58.44072878 188.8619954 58.45319722 202.68671387 58.45436358 C210.45019964 58.45528069 218.21361493 58.46104199 225.9770813 58.4791832 C232.58752392 58.49457554 239.19787428 58.49970979 245.80833141 58.49144509 C249.18127594 58.48753547 252.55388342 58.49011152 255.92683029 58.50250244 C259.58343792 58.51514957 263.23956583 58.5093841 266.89616966 58.49892044 C267.96222083 58.50697685 269.028272 58.51503325 270.12662774 58.52333379 C275.56693248 58.48682453 279.50918495 58.23828692 284.18942833 55.13142776 C289.19344283 49.78230882 288.40326263 43.22205643 288.43942833 36.31892776 C288.46005333 35.34633011 288.48067833 34.37373245 288.50192833 33.37166214 C288.53379318 27.48861351 288.03482153 23.31559539 285.18942833 18.13142776 C281.27506757 14.21706701 276.60490764 14.00796575 271.28334808 14 C270.31629255 13.99615885 269.34923702 13.99231771 268.35287678 13.98836017 C267.2983141 13.98922665 266.24375141 13.99009313 265.15723228 13.99098587 C264.03083867 13.98801475 262.90444505 13.98504363 261.7439183 13.98198247 C257.96158733 13.97329617 254.17928802 13.97178728 250.39694786 13.97029495 C247.68838883 13.96620418 244.97983314 13.96066273 242.27127647 13.95524979 C234.90770267 13.94168055 227.54413432 13.93564425 220.1805501 13.93123913 C215.58215819 13.92847493 210.98376838 13.92423731 206.38537788 13.91973495 C193.65147407 13.90754528 180.91757194 13.89724462 168.18366241 13.89385986 C167.36903825 13.8936403 166.55441408 13.89342073 165.71510433 13.89319451 C164.8985474 13.89297623 164.08199048 13.89275796 163.2406894 13.89253306 C161.58606982 13.8920896 159.93145025 13.89164304 158.27683067 13.89119339 C157.45608468 13.89097196 156.63533868 13.89075053 155.78972159 13.89052239 C142.48663168 13.88657319 129.18359651 13.86911411 115.88052775 13.84583387 C102.21961356 13.82212045 88.55872685 13.80965806 74.89779174 13.80849195 C67.22875986 13.8075753 59.55979935 13.80182549 51.89078712 13.78367233 C45.36166838 13.76827163 38.83264307 13.76315077 32.30350961 13.77141044 C28.97295646 13.77531681 25.64274448 13.77275574 22.3121891 13.76035309 C18.69982727 13.74768879 15.08794983 13.75348084 11.47559166 13.76393509 C10.42549042 13.75587868 9.37538918 13.74782228 8.29346669 13.73952174 C1.77986367 13.78366954 -3.97401858 14.10577113 -8.68557167 19.13142776 Z M5.94342422 83.23865795 C5.51359981 84.20606893 5.51359981 84.20606893 5.07509208 85.19302356 C3.67077637 88.26657318 1.91814294 91.10499373 0.18942833 94.00642776 C-9.23360612 110.47698255 -9.23360612 110.47698255 -13.81057167 128.13142776 C67.36942833 128.13142776 148.54942833 128.13142776 232.18942833 128.13142776 C235.15942833 120.21142776 238.12942833 112.29142776 241.18942833 104.13142776 C245.61793728 94.72936261 250.43239073 85.75581048 255.72067833 76.82674026 C257.34892681 74.35031729 257.34892681 74.35031729 257.18942833 72.13142776 C226.40322006 71.78900616 195.6174485 71.52366623 164.82978994 71.36544782 C161.19250481 71.34668793 157.55522346 71.32727303 153.91794395 71.30745316 C153.19384767 71.3035185 152.46975138 71.29958384 151.72371279 71.29552995 C140.0093012 71.23031421 128.29599728 71.11207926 116.58224215 70.97413582 C104.55667106 70.83370485 92.53167874 70.75051411 80.50532138 70.72010034 C73.75228123 70.70138945 67.00154737 70.65651975 60.24933815 70.54547691 C53.89064511 70.44350259 47.53548897 70.41228094 41.17605591 70.43481255 C38.84507757 70.43069233 36.51397868 70.40093386 34.18370819 70.34334564 C20.68167769 70.0260913 12.26471624 70.28445048 5.94342422 83.23865795 Z M278.18942833 89.13142776 C277.89228317 118.41414361 277.66250529 147.69675184 277.52557905 176.9806692 C277.50932163 180.44498703 277.49249527 183.90930188 277.475317 187.37361526 C277.47190697 188.06324093 277.46849693 188.75286659 277.46498356 189.46338999 C277.40855508 200.60133957 277.30613553 211.73840879 277.18644198 222.87583768 C277.0644787 234.32069475 276.99355468 245.76484047 276.9662779 257.21036625 C276.94937907 263.63255194 276.90987764 270.05274726 276.81493759 276.47429276 C276.72615155 282.52912007 276.69958403 288.58115347 276.71902847 294.63656998 C276.71547588 296.84888314 276.68993317 299.06129765 276.63975716 301.27304459 C276.36635029 313.95564021 277.28762893 322.39763341 286.15116328 331.94521236 C287.27532777 333.09899429 288.40677846 334.24572722 289.54581988 335.38482475 C298.14721198 344.52521178 304.25769732 356.42612641 310.30685997 367.30208206 C310.78502159 368.16100052 311.26318321 369.01991898 311.75583458 369.90486526 C312.17808311 370.67234085 312.60033165 371.43981644 313.0353756 372.23054886 C314.17199439 374.2723089 314.17199439 374.2723089 316.18942833 376.13142776 C316.33081825 355.74420639 316.43598721 335.35708713 316.50030136 314.96947384 C316.5309833 305.49895714 316.57265927 296.0287484 316.64206505 286.55842972 C316.70266751 278.2852276 316.74076268 270.01224885 316.7539593 261.73883086 C316.7616495 257.3751128 316.77915413 253.01203263 316.82380867 248.64852333 C317.05463024 225.15588483 314.96552315 203.14119362 310.18942833 180.13142776 C309.92575336 178.83908911 309.6620784 177.54675045 309.39041328 176.21525002 C300.0277722 130.21793789 300.0277722 130.21793789 278.18942833 89.13142776 Z M263.18942833 91.13142776 C245.26195271 125.72912746 236.36846235 161.92683708 229.57224083 200.11970901 C229.44652199 200.82591888 229.32080315 201.53212875 229.19127464 202.25973892 C228.00267411 209.03194102 227.06408304 215.53925418 227.06917381 222.4270668 C227.06831939 223.12725168 227.06746496 223.82743655 227.06658465 224.54883915 C227.06494793 226.87644421 227.07042136 229.20397592 227.07590294 231.53157425 C227.07618523 233.20746229 227.07602626 234.88335046 227.07546043 236.55923843 C227.07517409 241.09588021 227.08104456 245.63249542 227.08803439 250.16913104 C227.09429498 254.91503053 227.09487387 259.66093066 227.0960598 264.40683365 C227.09916514 273.38809569 227.10736778 282.36934553 227.11740929 291.35060221 C227.12859518 301.57789598 227.13408712 311.80519034 227.13910472 322.0324887 C227.14955106 343.0654752 227.16713506 364.09845071 227.18942833 385.13142776 C228.93258552 382.51669197 230.06058503 380.24911153 231.25583458 377.36970901 C246.86639023 340.28516692 246.86639023 340.28516692 259.7165066 327.62718195 C263.67379093 323.6383088 264.88224417 320.77832149 264.96391618 315.18186909 C264.94643913 314.30344992 264.92896209 313.42503076 264.91095543 312.51999283 C264.91864525 311.09607047 264.91864525 311.09607047 264.92649043 309.64338201 C264.9363498 306.47211404 264.90341349 303.30276348 264.87058067 300.13167191 C264.86888774 297.85480672 264.86983917 295.57793826 264.8732357 293.30107498 C264.87495699 287.12577928 264.83968408 280.95118302 264.79779196 274.77604985 C264.76028096 268.32052485 264.75675927 261.86498377 264.74963951 255.40936661 C264.73311045 244.57594126 264.69563509 233.74280269 264.64206505 222.90950394 C264.58695561 211.75326694 264.54450244 200.59709964 264.51901817 189.44075394 C264.51744183 188.75259702 264.51586549 188.06444011 264.51424138 187.35542995 C264.50641092 183.90300437 264.49882873 180.4505783 264.49136996 176.9981519 C264.42921192 148.37573734 264.32312284 119.75359259 264.18942833 91.13142776 C263.85942833 91.13142776 263.52942833 91.13142776 263.18942833 91.13142776 Z M270.18942833 336.13142776 C268.40237078 338.42863679 266.75104611 340.72181247 265.12692833 343.13142776 C264.63595665 343.85692825 264.14498497 344.58242874 263.63913536 345.32991409 C248.11824652 368.57105081 238.68483077 393.71957473 232.01364708 420.73689651 C231.60342308 422.38836685 231.60342308 422.38836685 231.18491173 424.07320023 C230.51805187 426.75885986 229.85292539 429.44493575 229.18942833 432.13142776 C237.37854101 432.17794752 245.56759766 432.21339612 253.75681019 432.23505211 C257.56016232 432.24545046 261.36342347 432.25953672 265.16672325 432.28230667 C268.84311939 432.30417693 272.51942849 432.31602602 276.1958847 432.32118225 C277.59237664 432.32485273 278.98886429 432.33201963 280.38531876 432.34288788 C291.8827058 432.42873926 301.48088704 432.3681745 310.18942833 424.13142776 C314.02190679 419.62826558 314.65400628 416.96768833 314.18942833 411.13142776 C313.25043701 407.74586676 311.99384273 404.51626596 310.68942833 401.25642776 C310.32559044 400.33168655 309.96175255 399.40694534 309.58688927 398.45418167 C301.41140093 377.95197558 290.93903613 359.45931465 277.18942833 342.13142776 C276.66349083 341.45209183 276.13755333 340.77275589 275.59567833 340.07283401 C274.51553002 338.71322873 273.36278809 337.41145659 272.18942833 336.13142776 C271.52942833 336.13142776 270.86942833 336.13142776 270.18942833 336.13142776 Z " fill="#000000" transform="translate(181.81057167053223,32.86857223510742)"/>
<path d="M0 0 C1.99661892 1.87572273 3.57012578 3.75455419 5.12890625 6 C6.11890625 5.67 7.10890625 5.34 8.12890625 5 C17.15743085 2.78303132 28.31062867 2.50329066 36.8125 6.53125 C42.09100101 9.87815789 47.58083488 14.02293967 50.5 19.63671875 C52.76820589 22.92752106 54.96034661 23.27577684 58.75390625 24.375 C70.5559389 28.30090787 77.37930437 35.0770347 83.19140625 45.99609375 C85.64006669 51.65862102 86.09124601 57.88021141 86.12890625 64 C85.79890625 64.66 85.46890625 65.32 85.12890625 66 C85.99902344 66.23783203 85.99902344 66.23783203 86.88671875 66.48046875 C93.43326491 68.43579029 98.14192781 70.55272426 101.69136047 76.71075439 C103.24290638 80.26084348 104.03016879 83.51085128 104.75463867 87.31542969 C104.89162674 88.02200714 105.02861481 88.72858459 105.16975403 89.45657349 C105.61699721 91.77671637 106.05112294 94.09908206 106.484375 96.421875 C106.79344919 98.04854075 107.10305366 99.67510583 107.41316223 101.30157471 C108.0601997 104.70648274 108.70072367 108.11253481 109.33666992 111.51953125 C110.14806951 115.863568 110.97565022 120.20433138 111.80822277 124.54435349 C112.45058059 127.90277919 113.084149 131.26281841 113.71517372 134.6233902 C114.01667518 136.22330734 114.32085038 137.82272323 114.62785912 139.42159271 C118.40313337 159.14494034 118.40313337 159.14494034 117.12890625 164 C114.65967428 166.70906052 112.54929964 167.21689631 109.02745152 167.38031673 C107.30969735 167.39814851 105.59172397 167.39931103 103.87391663 167.38768005 C102.4530056 167.39575836 102.4530056 167.39575836 101.0033893 167.40399987 C97.82122015 167.4183362 94.63946366 167.41116166 91.45727539 167.40405273 C89.17910934 167.40975332 86.90094614 167.41671637 84.62278748 167.42485046 C78.42863028 167.44283124 72.23461437 167.44160423 66.04043889 167.43590808 C60.8737016 167.43282336 55.70699174 167.43890068 50.54025835 167.44494683 C37.65648749 167.45981099 24.77281605 167.45616493 11.88904905 167.44408352 C0.69906026 167.43415085 -10.49076318 167.44709137 -21.68072646 167.47101771 C-33.16973615 167.49539845 -44.65865001 167.50461918 -56.14768702 167.49836498 C-62.59826003 167.49498885 -69.04869643 167.49745413 -75.49925041 167.51461601 C-81.56414131 167.53004679 -87.62871576 167.5261724 -93.69359398 167.50731087 C-95.92166329 167.50361429 -98.14975585 167.50676436 -100.3778038 167.51719666 C-103.41527765 167.53033488 -106.45169279 167.51892227 -109.48912048 167.50120544 C-110.3745278 167.51081045 -111.25993512 167.52041546 -112.17217296 167.53031152 C-116.2290667 167.48149622 -118.37804131 167.29401047 -121.93322563 165.1740303 C-123.87109375 163 -123.87109375 163 -124.25895691 159.71430969 C-123.86648919 155.95590515 -123.34961677 152.28785069 -122.6652832 148.57104492 C-122.53676468 147.86432144 -122.40824615 147.15759796 -122.27583313 146.42945862 C-121.85218316 144.11180895 -121.41898549 141.79608644 -120.984375 139.48046875 C-120.6823511 137.85535346 -120.3804478 136.23021574 -120.07865906 134.60505676 C-119.4452241 131.20415218 -118.80632386 127.80432354 -118.16430664 124.4050293 C-117.34734188 120.07394972 -116.55014357 115.73948874 -115.75787067 111.40383434 C-115.1409719 108.04646881 -114.51034461 104.69178532 -113.87602806 101.33767128 C-113.57653488 99.74198809 -113.28190814 98.14538276 -112.99248695 96.54784203 C-109.19554322 75.66631391 -109.19554322 75.66631391 -102.84199524 70.27970886 C-99.39191199 67.9301585 -96.07919585 66.39450957 -91.87109375 66 C-91.95359375 65.071875 -92.03609375 64.14375 -92.12109375 63.1875 C-92.02753785 53.9067543 -87.59490538 46.69172798 -81.32421875 40.171875 C-77.69100003 36.95520365 -72.94971839 33 -67.87109375 33 C-67.93296875 31.741875 -67.99484375 30.48375 -68.05859375 29.1875 C-68.00784918 18.39582188 -64.02000382 8.8231721 -56.90234375 0.7734375 C-40.3716572 -15.21820492 -17.03220156 -13.99757175 0 0 Z M-48.6171875 13.9609375 C-53.14636707 21.3261454 -53.13255763 26.90089879 -52.66601562 35.32421875 C-52.46521774 41.52446564 -52.46521774 41.52446564 -54.578125 44 C-56.92761355 45.02464918 -59.1202757 45.69249279 -61.62109375 46.25 C-67.24330942 47.86109282 -71.20946541 50.40759803 -74.87109375 55 C-76.5822927 58.52034532 -77.87109375 62.05597369 -77.87109375 66 C-28.70109375 66 20.46890625 66 71.12890625 66 C71.12890625 56.37028199 70.30092921 50.47875142 63.84765625 43.53515625 C58.46465864 38.72716065 52.57937463 37.48101195 45.546875 36.6875 C42.48373296 35.81655816 41.72744432 34.6990892 40.12890625 32 C39.71640625 31.05125 39.30390625 30.1025 38.87890625 29.125 C36.0838547 24.13383653 32.31188189 21.0005305 27.12890625 18.625 C19.03971797 16.93975244 14.07760877 18.93993435 7.12890625 23 C6.63390625 23.495 6.63390625 23.495 6.12890625 24 C2.94140625 24.625 2.94140625 24.625 -0.87109375 24 C-3.32593988 21.27896573 -5.02796487 18.15448668 -6.87109375 15 C-10.88253127 9.19164094 -15.84759233 5.39427579 -22.87109375 4 C-33.45201449 2.81682995 -41.76999856 5.66255329 -48.6171875 13.9609375 Z M-94.87109375 83 C-95.87199945 84.96982628 -95.87199945 84.96982628 -96.171875 87.28515625 C-96.34050049 88.18862793 -96.50912598 89.09209961 -96.68286133 90.02294922 C-96.93072388 91.52752686 -96.93072388 91.52752686 -97.18359375 93.0625 C-97.58944944 95.29564461 -97.9957341 97.52871129 -98.40234375 99.76171875 C-98.73878906 101.67090088 -98.73878906 101.67090088 -99.08203125 103.61865234 C-99.99023277 108.72077339 -100.97843831 113.80705203 -101.96484375 118.89453125 C-102.33431606 120.80524023 -102.70370045 122.71596622 -103.07299805 124.62670898 C-103.25647797 125.57601288 -103.43995789 126.52531677 -103.6289978 127.50338745 C-104.52333434 132.13412452 -105.41462041 136.76538218 -106.296875 141.3984375 C-106.45599365 142.22241531 -106.6151123 143.04639313 -106.77905273 143.89533997 C-107.36285834 146.9750572 -107.87109375 149.8576549 -107.87109375 153 C-38.90109375 153 30.06890625 153 101.12890625 153 C100.3687271 144.20140806 100.3687271 144.20140806 99.05322266 135.58227539 C98.84275299 134.45483414 98.63228333 133.32739288 98.41543579 132.16578674 C98.18939667 130.98830368 97.96335754 129.81082062 97.73046875 128.59765625 C97.37702896 126.73747108 97.37702896 126.73747108 97.01644897 124.83970642 C96.5199723 122.23816986 96.02112045 119.63721893 95.51855469 117.03686523 C94.87657879 113.71137071 94.24957267 110.3832392 93.62615395 107.05422306 C93.02475588 103.85851179 92.4079185 100.6657829 91.79296875 97.47265625 C91.57097809 96.28100357 91.34898743 95.08935089 91.12026978 93.86158752 C90.90349579 92.7562114 90.6867218 91.65083527 90.46337891 90.51196289 C90.27764313 89.54142471 90.09190735 88.57088654 89.90054321 87.57093811 C89.06263393 84.77919404 88.11279107 83.12476053 86.12890625 81 C82.64163232 79.83757536 79.91526792 79.86820429 76.23403931 79.85955811 C75.5285493 79.85658698 74.8230593 79.85361586 74.09619081 79.8505547 C71.7263874 79.84186602 69.35663449 79.84035932 66.98681641 79.83886719 C65.29007357 79.83423918 63.59333177 79.82921454 61.89659119 79.82382202 C57.28294429 79.8106954 52.66931194 79.80425269 48.05564928 79.79981136 C45.17425751 79.79688139 42.29286972 79.79277676 39.41147995 79.78830719 C30.39917476 79.77463231 21.38687866 79.76496529 12.37456381 79.7611053 C1.9655334 79.75662276 -8.44336581 79.73906572 -18.85235631 79.7101047 C-26.89489397 79.68850325 -34.93739467 79.67840186 -42.97996104 79.67706418 C-47.78510683 79.67601516 -52.5901293 79.67008659 -57.3952446 79.65224457 C-61.91455737 79.63579017 -66.43365375 79.63359553 -70.95298576 79.64238358 C-72.61182801 79.64315533 -74.27068178 79.638793 -75.92949486 79.62892532 C-78.19400858 79.61624431 -80.45775139 79.62206108 -82.72225952 79.63250732 C-83.98951559 79.63104076 -85.25677166 79.6295742 -86.56242943 79.6280632 C-90.1348838 80.02965342 -92.02586025 80.84176382 -94.87109375 83 Z " fill="#000000" transform="translate(123.87109375,312)"/>
<path d="M0 0 C6.22537174 4.57224782 11.9175829 10.03259128 15.19921875 17.08203125 C17.56911941 21.63555216 22.14958321 23.00770045 26.609375 25.078125 C35.45792765 29.2820807 40.65291244 37.62339192 44.38671875 46.45703125 C47.83792352 57.00357005 47.00380431 68.51151162 42.44921875 78.58203125 C36.45978664 89.41176023 28.36232199 96.14624759 16.62890625 100.08984375 C4.88713821 102.12623895 -6.07791054 100.48717208 -16.23828125 94.20703125 C-20.21699051 92.06464934 -22.02409502 91.70038952 -26.48828125 92.45703125 C-29.05966025 93.81957134 -31.45815725 95.31151918 -33.86328125 96.94921875 C-42.55639517 101.94258478 -54.39047077 101.98489428 -63.98046875 99.58203125 C-70.54436605 97.04332288 -75.63605516 93.5241578 -80.48828125 88.45703125 C-80.96910156 87.96203125 -81.44992188 87.46703125 -81.9453125 86.95703125 C-89.40357062 78.66507056 -92.04630789 68.37459526 -91.80078125 57.41796875 C-90.5045131 45.13582806 -85.16458998 34.91185281 -75.765625 26.9921875 C-73.22395543 25.27884935 -70.71629077 24.25554039 -67.86328125 23.14453125 C-61.48845557 20.48541888 -59.52620473 16.39871124 -56.48828125 10.45703125 C-51.41723015 3.06778536 -42.83332183 -2.62192927 -34.1875 -5.10546875 C-22.41212205 -7.01406836 -10.33187167 -6.40673361 0 0 Z M-43.48828125 17.45703125 C-45.09364745 19.96438155 -46.58756378 22.52062458 -48.078125 25.09765625 C-51.27575207 30.44770265 -54.8293781 32.6884197 -60.36328125 35.26953125 C-67.54676556 38.71548313 -71.34274957 42.92728558 -75.42578125 49.64453125 C-77.24657313 56.17796092 -77.85199956 63.88838272 -75.30078125 70.33203125 C-74.70265625 71.36328125 -74.10453125 72.39453125 -73.48828125 73.45703125 C-73.15957031 74.05 -72.83085937 74.64296875 -72.4921875 75.25390625 C-69.00100481 80.90744776 -63.76950483 84.16365969 -57.4453125 86.07421875 C-50.8583841 87.36267979 -45.41992007 86.39803209 -39.48828125 83.45703125 C-38.49828125 82.77640625 -37.50828125 82.09578125 -36.48828125 81.39453125 C-30.46246402 77.50285763 -24.49949957 76.93126484 -17.50390625 77.703125 C-12.66184109 78.91364129 -8.60531301 81.33174389 -4.3359375 83.86328125 C1.19244788 86.95735702 6.88728525 87.39858987 13.0078125 85.80859375 C20.09271355 83.28520434 25.04991328 79.73779684 28.828125 73.16796875 C32.1411999 65.8953653 33.03373331 58.93975298 30.44140625 51.3046875 C26.27952232 42.10533204 21.1447395 38.1531559 12.26171875 33.89453125 C7.47730977 31.58632784 5.10753632 29.24235122 2.453125 24.609375 C-2.04631278 16.95295464 -7.51461208 11.28708597 -16.27734375 8.89453125 C-26.20179656 6.93068193 -36.51720287 9.99959856 -43.48828125 17.45703125 Z " fill="#000000" transform="translate(290.48828125,259.54296875)"/>
<path d="M0 0 C0.94025528 -0.00686325 1.88051056 -0.0137265 2.84925842 -0.02079773 C5.95760187 -0.03910082 9.06544235 -0.03522353 12.17382812 -0.02954102 C14.33329432 -0.03410079 16.49275906 -0.03940575 18.65222168 -0.04542542 C23.17820125 -0.05436318 27.70400442 -0.05192536 32.22998047 -0.04199219 C38.03425376 -0.03049576 43.8379193 -0.0507213 49.64211273 -0.07990932 C54.10133745 -0.09824057 58.56041565 -0.09798509 63.01966858 -0.0922718 C65.15992587 -0.09211825 67.30019289 -0.09819103 69.44041443 -0.11056328 C72.43071834 -0.12541492 75.41988822 -0.11483921 78.41015625 -0.09765625 C79.2965126 -0.10732422 80.18286896 -0.11699219 81.09608459 -0.12695312 C87.05681995 -0.0551069 87.05681995 -0.0551069 90.25866699 2.2127533 C92.36160626 5.39868677 92.17939686 7.6772627 91.70507812 11.40405273 C90.18383728 13.42777748 89.30222315 14.28583038 86.79819489 14.78157616 C86.07479668 14.78270723 85.35139847 14.78383831 84.6060791 14.78500366 C83.35689445 14.79769287 83.35689445 14.79769287 82.08247375 14.81063843 C81.1722496 14.80456573 80.26202545 14.79849304 79.32421875 14.79223633 C78.36299606 14.79749329 77.40177338 14.80275024 76.41142273 14.8081665 C73.22789351 14.82139137 70.0448626 14.81261948 66.86132812 14.80249023 C64.65319726 14.80451025 62.44506705 14.80742108 60.23693848 14.81118774 C55.60662491 14.81561447 50.97648483 14.80916871 46.34619141 14.79516602 C40.40399619 14.77807408 34.46220745 14.78791338 28.52002716 14.80588341 C23.95962447 14.81671174 19.39931853 14.81327925 14.83891296 14.80550003 C12.64759778 14.8034954 10.45627388 14.80596648 8.26496887 14.81293869 C5.20505426 14.82053742 2.1458026 14.80897083 -0.9140625 14.79223633 C-1.82428665 14.79830902 -2.7345108 14.80438171 -3.6723175 14.81063843 C-4.50510727 14.80217896 -5.33789703 14.79371948 -6.19592285 14.78500366 C-7.28102016 14.78330705 -7.28102016 14.78330705 -8.38803864 14.78157616 C-10.85427666 14.29331206 -11.748916 13.34707523 -13.29492188 11.40405273 C-13.72851562 9.46655273 -13.72851562 9.46655273 -13.73242188 7.40405273 C-13.75175781 6.72342773 -13.77109375 6.04280273 -13.79101562 5.34155273 C-13.29492188 3.40405273 -13.29492188 3.40405273 -11.84484863 1.80821228 C-7.98040248 -0.31980922 -4.34442986 -0.02206459 0 0 Z " fill="#000000" transform="translate(281.294921875,61.595947265625)"/>
<path d="M0 0 C4.49295802 3.91559192 6.60938632 8.43039192 7.25390625 14.3203125 C7.59848237 21.58975716 6.00035372 26.4207545 1.33984375 31.98046875 C-3.75537124 37.05475883 -8.8562327 38.780994 -16 39 C-22.67172039 38.41435845 -27.80780828 35.43576858 -32.25 30.5 C-36.40230607 24.56813419 -37.62972516 18.74429757 -36.5625 11.5625 C-34.92972614 5.23961061 -30.52021959 0.17852489 -25.01171875 -3.23046875 C-15.99910934 -7.07753449 -7.97741441 -5.31362743 0 0 Z M-20.4375 11.5625 C-22.32042676 14.01731429 -22.32042676 14.01731429 -22 17.5625 C-21.27839081 20.97502893 -21.27839081 20.97502893 -19.25 22.9375 C-16.50508782 24.23370853 -14.99925788 24.52487013 -12 24 C-9.54285631 22.54331238 -9.54285631 22.54331238 -8 20 C-7.33323122 16.45749949 -7.33323122 16.45749949 -8 13 C-10.20196024 10.37458587 -11.61973579 10.0554552 -15 9.5625 C-18.05210842 9.79694822 -18.05210842 9.79694822 -20.4375 11.5625 Z " fill="#000000" transform="translate(217,243)"/>
<path d="M0 0 C4.51957864 4.07534655 7.60041334 8.4815616 8.30078125 14.6484375 C8.3325638 22.04317834 7.26549393 26.39199114 3.3125 32.6875 C-1.17787657 37.17787657 -6.67080104 39.5452368 -13 40.02734375 C-20.29894269 39.92755352 -25.83972371 37.11461013 -31 32 C-35.1169803 26.81908098 -35.63179207 21.37557754 -35.37890625 14.8984375 C-34.47243023 7.96436319 -31.23470413 3.43934559 -25.78125 -0.8125 C-17.70731951 -6.19512033 -7.89393967 -5.0746755 0 0 Z M-19.5 13.125 C-21.2409198 15.92129953 -21.2409198 15.92129953 -21 19.125 C-20.18755589 22.00935665 -20.18755589 22.00935665 -18.375 23.9375 C-14.8542329 25.51258002 -12.65765818 25.06404602 -9 24 C-6.63395836 21.33820316 -5.95533815 19.93789883 -6.125 16.375 C-7.11270599 13.69408374 -7.57805073 12.53390121 -10 11 C-14.27595279 10.37804323 -16.15672575 10.28321689 -19.5 13.125 Z " fill="#000000" transform="translate(347,242)"/>
<path d="M0 0 C5.26321814 3.29087345 8.99981573 8.31426725 10.88671875 14.1796875 C11.79256551 21.22633266 11.25835623 27.42753292 6.88671875 33.1796875 C1.45655934 38.80651264 -2.35307675 41.31515774 -10.30078125 41.4921875 C-16.1263978 41.42098552 -20.53240152 40.9380911 -25.11328125 37.1796875 C-31.15336247 30.5965288 -32.5361033 25.36619013 -32.45703125 16.48046875 C-31.80908414 10.25870387 -28.65753413 6.37803334 -24.11328125 2.3046875 C-16.84398156 -2.84439978 -8.28569805 -3.52940485 0 0 Z M-14.92578125 13.6796875 C-17.56194659 16.69244789 -18.27682091 18.17296594 -18.11328125 22.1796875 C-15.83038026 25.26831825 -14.34820747 26.90860613 -10.55078125 27.7421875 C-7.32333791 26.99739288 -6.13098206 25.77387426 -4.11328125 23.1796875 C-3.03685416 21.29118395 -3.03685416 21.29118395 -3.11328125 19.1796875 C-4.52855199 15.68313626 -5.65744064 14.42742696 -8.98828125 12.6171875 C-12.17535966 11.85854249 -12.17535966 11.85854249 -14.92578125 13.6796875 Z " fill="#000000" transform="translate(247.11328125,205.8203125)"/>
<path d="M0 0 C5.28736781 3.62883027 8.68574929 7.67084527 10 14 C10.70899097 20.83420804 10.17989039 26.39593643 6 32 C0.57697184 37.63034714 -3.24494019 40.13558483 -11.1875 40.3125 C-17.01311655 40.24129802 -21.41912027 39.7584036 -26 36 C-32.04008122 29.4168413 -33.42282205 24.18650263 -33.34375 15.30078125 C-32.69580289 9.07901637 -29.54425288 5.19834584 -25 1.125 C-17.13822229 -4.44375921 -8.48939873 -4.73447237 0 0 Z M-15.25 11.6875 C-17.27850572 13.05720346 -17.27850572 13.05720346 -19 16 C-18.83423942 20.9237045 -18.83423942 20.9237045 -16.25 24.9375 C-13.50508782 26.23370853 -11.99925788 26.52487013 -9 26 C-6.6878553 24.20166523 -5.33685599 22.69616905 -4.0625 20.0625 C-3.96621372 16.88505268 -5.01247507 15.43632089 -7 13 C-10.10900195 11.47857352 -11.88875735 10.66045363 -15.25 11.6875 Z " fill="#000000" transform="translate(311,207)"/>
<path d="M0 0 C3.375 1.125 3.375 1.125 5.375 3.375 C6.53449287 6.5636054 6.54082954 7.96060553 5.375 11.125 C3.76017276 13.38575813 2.61399078 14.03695077 0 15 C-3.56289883 15.16966185 -4.96320316 14.49104164 -7.625 12.125 C-8.75 8.75 -8.75 8.75 -8.625 5.125 C-6.00857753 1.2003663 -4.75511924 0.16396963 0 0 Z " fill="#000000" transform="translate(81.625,357.875)"/>
<path d="M0 0 C4.36689189 1.42398649 4.36689189 1.42398649 5.875 3.9375 C6.26491688 8.30456908 6.33824069 10.24263897 3.875 13.9375 C-0.20339612 15.09176305 -2.24509638 15.38681249 -6.0625 13.4375 C-8.125 10.9375 -8.125 10.9375 -8.75 7.4375 C-8.125 3.9375 -8.125 3.9375 -6 1.4375 C-3.125 -0.0625 -3.125 -0.0625 0 0 Z " fill="#000000" transform="translate(134.125,360.0625)"/>
<path d="M0 0 C2.375 1 2.375 1 4 3 C4.65964122 6.55761554 4.63041883 9.73916234 3 13 C-0.26083766 14.63041883 -3.44238446 14.65964122 -7 14 C-9.6923481 11.81246717 -9.93936827 10.41576045 -10.4375 7 C-10 4 -10 4 -8.375 1.625 C-5.30522452 -0.4753727 -3.65443439 -0.53293835 0 0 Z " fill="#000000" transform="translate(176,359)"/>
<path d="M0 0 C2.42194927 1.53390121 2.88729401 2.69408374 3.875 5.375 C4.0376843 8.79137035 3.02489572 10.30013904 1 13 C-1.84083641 14.42041821 -3.85477278 14.31452272 -7 14 C-9.375 12.375 -9.375 12.375 -11 10 C-11.60605429 6.36367425 -11.47161336 4.71685231 -9.4375 1.625 C-6.1005787 -0.5996142 -3.93094707 -0.50030235 0 0 Z " fill="#000000" transform="translate(117,348)"/>
<path d="M0 0 C2 2 2 2 2.4375 5.375 C2 9 2 9 -0.0625 11.5 C-3.86390076 13.44114081 -5.92703189 13.07587837 -10 12 C-12 10 -12 10 -12.3125 6.0625 C-12.24476371 3.391755 -12.20742614 2.3062005 -10.6875 0.0625 C-6.5666631 -2.53210101 -4.31935253 -1.74612124 0 0 Z " fill="#000000" transform="translate(150,340)"/>
<path d="M0 0 C2.5 1.5625 2.5 1.5625 4 4 C4 7.77684879 3.78395245 10.03513544 1.375 13 C-2.11581787 14.46981805 -4.39148956 13.98413921 -8 13 C-10 11.3125 -10 11.3125 -11 9 C-10.87304813 5.88967921 -10.47953174 3.79921957 -8.875 1.125 C-5.83167192 -0.70099685 -3.45750445 -0.42460581 0 0 Z " fill="#000000" transform="translate(99,333)"/>
</svg>
