<?xml version="1.0" encoding="UTF-8"?>
<svg version="1.1" xmlns="http://www.w3.org/2000/svg" width="512" height="512">
<path d="M0 0 C0.84800649 -0.00453111 1.69601298 -0.00906223 2.56971663 -0.01373065 C5.41003318 -0.02638653 8.25015826 -0.0247535 11.09049988 -0.02310181 C13.12749478 -0.02908633 15.16448741 -0.0358917 17.20147705 -0.04345703 C22.73461163 -0.06113237 28.26768435 -0.06581307 33.80084443 -0.0670886 C38.42057311 -0.0689878 43.04028738 -0.07634562 47.66001052 -0.08343279 C58.56035033 -0.09972032 69.46065711 -0.10460143 80.36100769 -0.10317993 C91.60305788 -0.10197851 102.84491609 -0.1230798 114.0869177 -0.15466726 C123.74057601 -0.18082468 133.39417161 -0.19154744 143.04786509 -0.19026911 C148.81274868 -0.18975931 154.57746168 -0.19545284 160.34230995 -0.21662521 C165.76537428 -0.23599835 171.18810513 -0.2361382 176.61118126 -0.22159195 C178.5993384 -0.21950159 180.58751636 -0.22421821 182.57563782 -0.23631287 C185.29454962 -0.25177932 188.01231359 -0.24244806 190.73120117 -0.22705078 C191.51380509 -0.23733791 192.296409 -0.24762503 193.10272819 -0.25822389 C199.68239258 -0.17615474 204.8698509 1.87135014 209.79826355 6.26742554 C210.33709167 6.92742554 210.8759198 7.58742554 211.43107605 8.26742554 C211.98537292 8.92742554 212.5396698 9.58742554 213.11076355 10.26742554 C218.14132991 17.22864169 217.59575574 24.40069212 217.27482605 32.63070679 C216.57759186 59.57224865 218.53629203 79.16791805 233.38371277 101.88461304 C236.5552779 106.75186475 239.21676524 111.88616848 241.93107605 117.01742554 C242.87189422 118.73662424 243.81583697 120.45411724 244.7631073 122.16976929 C247.75557601 127.61841062 250.70447902 133.08897982 253.61857605 138.57992554 C254.07216492 139.42200562 254.52575378 140.26408569 254.99308777 141.13168335 C260.95997234 152.43998339 262.71120261 162.71929546 262.68978882 175.41189575 C262.69205437 176.40665114 262.69431993 177.40140652 262.69665414 178.42630601 C262.70296273 181.74542811 262.7021668 185.06450905 262.70133972 188.38363647 C262.70433318 190.76925713 262.70773614 193.15487729 262.71151733 195.54049683 C262.71942671 201.3400516 262.72257118 207.13959398 262.72312971 212.93915388 C262.72360594 217.65663434 262.72566602 222.37411147 262.72883034 227.09159088 C262.73763103 240.48589636 262.74225065 253.88019385 262.74149986 267.27450225 C262.74143993 268.35622877 262.74143993 268.35622877 262.74137878 269.45980835 C262.7413379 270.18184662 262.74129702 270.90388488 262.7412549 271.6478031 C262.74084864 283.34361445 262.7504147 295.03939357 262.76451715 306.73519561 C262.77890515 318.7633611 262.785786 330.79151091 262.78492337 342.81968522 C262.78459223 349.56493126 262.78730288 356.31014352 262.79810143 363.05538177 C262.80780454 369.40178679 262.80784636 375.74812062 262.80058479 382.0945282 C262.7995417 384.4180283 262.80188544 386.74153289 262.80794525 389.06502533 C262.89376931 424.26415348 262.89376931 424.26415348 249.79826355 438.22445679 C240.67298081 446.53895656 231.48798706 448.57104221 219.53807068 448.53485107 C217.88690235 448.54164774 217.88690235 448.54164774 216.20237708 448.54858172 C212.5184761 448.5612292 208.83472289 448.55960509 205.15080261 448.55795288 C202.50754753 448.56393792 199.86430396 448.57068699 197.22105408 448.57830811 C190.78869165 448.59489536 184.35636588 448.60041663 177.92398384 448.60153286 C172.69302302 448.60248446 167.46207425 448.60660036 162.23111725 448.61293411 C147.38705779 448.63054071 132.54302721 448.63977395 117.69895723 448.63827316 C116.4994957 448.6381533 116.4994957 448.6381533 115.27580261 448.63803101 C114.47518055 448.63794924 113.67455849 448.63786748 112.84967515 448.63778324 C99.87918286 448.63697062 86.90880677 448.65610382 73.93834808 448.68430774 C60.6073088 448.71306603 47.27632612 448.7268464 33.94525504 448.72512019 C26.46613642 448.72445728 18.98713962 448.72990595 11.50804901 448.75147629 C5.13936369 448.76972697 -1.2291446 448.77400372 -7.59784481 448.76045744 C-10.84387575 448.75394705 -14.0894986 448.75593262 -17.33551025 448.77116394 C-20.8633021 448.78664203 -24.39021064 448.77729005 -27.91798401 448.76190186 C-28.93172395 448.77218898 -29.9454639 448.78247611 -30.98992324 448.79307497 C-42.17846852 448.68566706 -51.34124022 445.00250168 -59.44392395 437.26742554 C-69.89495133 426.31971567 -71.60216559 413.66195669 -71.57763672 399.12295532 C-71.57990228 398.12819994 -71.58216783 397.13344455 -71.58450204 396.10854506 C-71.59081063 392.78942296 -71.5900147 389.47034202 -71.58918762 386.1512146 C-71.59218108 383.76559395 -71.59558404 381.37997378 -71.59936523 378.99435425 C-71.60727461 373.19479947 -71.61041908 367.3952571 -71.61097761 361.59569719 C-71.61145384 356.87821673 -71.61351392 352.1607396 -71.61667824 347.44326019 C-71.62547893 334.04895471 -71.63009855 320.65465722 -71.62934776 307.26034883 C-71.62930781 306.53919781 -71.62926785 305.8180468 -71.62922668 305.07504272 C-71.6291858 304.35300446 -71.62914492 303.63096619 -71.6291028 302.88704798 C-71.62869654 291.19123663 -71.6382626 279.4954575 -71.65236505 267.79965547 C-71.66675305 255.77148997 -71.6736339 243.74334017 -71.67277128 231.71516585 C-71.67244013 224.96991981 -71.67515078 218.22470756 -71.68594933 211.4794693 C-71.69565244 205.13306428 -71.69569427 198.78673045 -71.68843269 192.44032288 C-71.6873896 190.11682277 -71.68973334 187.79331818 -71.69579315 185.46982574 C-71.76628467 156.55904887 -71.76628467 156.55904887 -66.25642395 146.32992554 C-65.53886369 144.96930769 -64.82142685 143.60862476 -64.1040802 142.24789429 C-63.69174133 141.48009644 -63.27940247 140.71229858 -62.85456848 139.92123413 C-61.20570112 136.81926316 -59.60296957 133.69543133 -58.0025177 130.56820679 C-51.68720986 118.23698039 -45.29488913 105.9582546 -38.56404114 93.84701538 C-37.66000022 92.21334552 -36.77287847 90.57021445 -35.90168762 88.91879272 C-34.44392395 86.26742554 -34.44392395 86.26742554 -32.5740509 83.42074585 C-25.64661513 71.90697295 -26.50428578 59.99236571 -26.63142395 46.89242554 C-26.63745981 43.50220609 -26.63358089 40.11230476 -26.62026978 36.72210693 C-26.61483392 34.62739354 -26.62181488 32.53259718 -26.64343262 30.43798828 C-26.66740014 22.03358222 -25.89684901 15.04673778 -20.44392395 8.26742554 C-14.08962207 1.94338224 -9.04383442 -0.03548808 0 0 Z M-7.44392395 19.26742554 C-14.30767738 32.99493239 -9.44392395 49.91960629 -9.44392395 65.26742554 C59.85607605 65.26742554 129.15607605 65.26742554 200.55607605 65.26742554 C203.09449449 40.64884838 203.09449449 40.64884838 197.55607605 18.26742554 C193.47184305 15.85242076 189.24978717 15.98301374 184.63018799 16.00672913 C183.8379401 16.00290358 183.04569221 15.99907803 182.22943681 15.99513656 C179.57791355 15.9848276 176.92660767 15.98879469 174.27507019 15.99276733 C172.37276001 15.98841971 170.47045158 15.98323639 168.56814575 15.97727966 C163.40289472 15.96388422 158.23771684 15.96331158 153.07245183 15.96584296 C148.76071598 15.96691225 144.44899496 15.96203041 140.13726228 15.95723754 C129.96573907 15.94614058 119.79425278 15.94570609 109.62272644 15.95175171 C99.12820135 15.95779336 88.63381026 15.94547602 78.13930804 15.92418164 C69.12941287 15.90657165 60.11956039 15.90056331 51.10964864 15.90381938 C45.72827508 15.90563326 40.34699711 15.90298558 34.96563911 15.88910484 C29.90540038 15.87654087 24.84537075 15.8784571 19.78513527 15.89151573 C17.92837199 15.89388413 16.07159405 15.8911374 14.21484756 15.88289261 C11.67930441 15.87244578 9.14446555 15.880509 6.60894775 15.89320374 C5.87499143 15.88582945 5.14103511 15.87845517 4.38483769 15.87085742 C-0.27906606 15.91994971 -3.53617465 16.69383779 -7.44392395 19.26742554 Z M-12.44392395 81.26742554 C-17.06392395 90.17742554 -21.68392395 99.08742554 -26.44392395 108.26742554 C-32.44392395 119.26742554 -32.44392395 119.26742554 -35.34236145 124.56039429 C-38.64252818 130.61644812 -41.91097473 136.68846359 -45.12409973 142.79110718 C-46.04249424 144.52988666 -46.97157291 146.26300979 -47.9009552 147.99594116 C-48.46427551 149.07166382 -49.02759583 150.14738647 -49.60798645 151.25570679 C-50.35749573 152.67170166 -50.35749573 152.67170166 -51.12214661 154.11630249 C-54.18822723 161.42585229 -54.73641873 168.62439809 -54.69789124 176.47640991 C-54.70101122 177.46596931 -54.7041312 178.45552872 -54.70734572 179.47507477 C-54.71528371 182.7705034 -54.70901846 186.06574574 -54.70271301 189.36117554 C-54.70542474 191.73210762 -54.70898669 194.10303886 -54.71333313 196.47396851 C-54.72243778 202.89947583 -54.71892077 209.32491882 -54.71257496 215.75042725 C-54.70901386 219.76659387 -54.70969201 223.7827523 -54.71155548 227.79891968 C-54.71186195 228.46673918 -54.71216841 229.13455869 -54.71248417 229.82261515 C-54.71312365 231.17950376 -54.71377208 232.53639238 -54.71442935 233.89328098 C-54.72012515 246.60089565 -54.71358654 259.30848142 -54.70282862 272.01609135 C-54.69389378 282.90717555 -54.69544604 293.79821711 -54.70466614 304.68930054 C-54.71538204 317.35310314 -54.7195759 330.01688044 -54.71344161 342.68068695 C-54.71280455 344.0324351 -54.71217581 345.38418324 -54.71155548 346.7359314 C-54.71124693 347.40092478 -54.71093838 348.06591817 -54.71062048 348.75106287 C-54.70889749 353.42522587 -54.7118984 358.0993679 -54.71651459 362.77352905 C-54.72229944 369.07069822 -54.71827018 375.36778701 -54.70672607 381.66494751 C-54.70408561 383.97358059 -54.70483409 386.28222046 -54.7092514 388.59085083 C-54.71473242 391.74680506 -54.70784159 394.90250316 -54.69789124 398.05844116 C-54.70235268 398.967696 -54.70681412 399.87695084 -54.71141076 400.81375885 C-54.65654887 409.81121202 -53.47445828 418.25731202 -47.44392395 425.26742554 C-38.13795632 433.27299594 -26.27479016 432.55966794 -14.69392395 432.5262146 C-13.11115865 432.5289286 -11.52839461 432.53249182 -9.94563293 432.53683472 C-5.66880668 432.54591239 -1.39207747 432.54243362 2.88475037 432.53607655 C7.37285106 432.53099254 11.86094376 432.53571465 16.3490448 432.53884888 C23.88421613 432.54248154 31.41934819 432.53770781 38.95451355 432.52816772 C47.65063627 432.51728453 56.34666519 432.5208106 65.04278564 432.53182054 C72.52585652 432.54091337 80.00889926 432.54216894 87.49197388 432.5369432 C91.95394934 432.53383446 96.4158808 432.5333839 100.87785339 432.54001617 C105.07385115 432.54581809 109.26972865 432.54174092 113.4657135 432.53022766 C115.00031841 432.52759625 116.53493354 432.52832003 118.0695343 432.53275299 C129.72479049 432.56330225 140.49751363 432.55355241 149.55607605 424.26742554 C155.23731009 416.58423284 155.70428523 409.43120876 155.68737793 400.17327881 C155.68949364 399.14771271 155.69160936 398.12214662 155.69378918 397.06550276 C155.69978728 393.62417336 155.69878916 390.18288064 155.69792175 386.74154663 C155.70095341 384.27592913 155.70447488 381.8103122 155.70845032 379.34469604 C155.71633974 374.0316698 155.72150486 368.71865089 155.72474098 363.40562057 C155.73024592 355.00094338 155.74715251 346.59630659 155.76608276 338.19165039 C155.77243933 335.31397826 155.77874781 332.43630603 155.78505993 329.5586338 C155.78664369 328.83947448 155.78822745 328.12031515 155.78985921 327.37936311 C155.80779038 319.19573187 155.82401869 311.01209779 155.83903503 302.82846069 C155.84041091 302.08053869 155.84178678 301.33261669 155.84320434 300.56203039 C155.86511763 288.45151086 155.87588682 276.34100178 155.88340578 264.23046593 C155.89148833 251.7853812 155.91481584 239.34038575 155.95135945 226.89535201 C155.97333665 219.2260794 155.98306381 211.5569906 155.97685912 203.88768812 C155.97329724 198.00281969 155.99060856 192.11812726 156.01553726 186.23330688 C156.02244415 183.82554727 156.02258106 181.41775695 156.01533699 179.00999832 C156.0064248 175.71413954 156.022182 172.41925416 156.04382324 169.12347412 C156.03115944 167.70587345 156.03115944 167.70587345 156.0182398 166.25963438 C156.13542823 156.55820665 159.78555984 148.22241192 164.24357605 139.74789429 C164.75268524 138.76127052 164.75268524 138.76127052 165.27207947 137.75471497 C166.36006119 135.65123718 167.45774305 133.55301395 168.55607605 131.45492554 C169.31717327 129.98880119 170.07791192 128.52249066 170.83830261 127.05599976 C175.669615 117.76228916 180.59389424 108.52086129 185.71232605 99.38143921 C189.02422752 93.42793104 191.70952711 87.5298332 194.55607605 81.26742554 C126.24607605 81.26742554 57.93607605 81.26742554 -12.44392395 81.26742554 Z M199.55607605 108.26742554 C199.22510925 108.90953979 198.89414246 109.55165405 198.55314636 110.21322632 C191.96331107 122.98244948 185.31243744 135.70630026 178.34025574 148.27182007 C177.87135925 149.12115112 177.40246277 149.97048218 176.9193573 150.84555054 C176.50983826 151.58192749 176.10031921 152.31830444 175.6783905 153.07699585 C175.30802673 153.79983765 174.93766296 154.52267944 174.55607605 155.26742554 C174.20839424 155.93005559 173.86071243 156.59268564 173.50249481 157.27539539 C172.12512885 161.62983198 172.2753779 165.78906253 172.2910614 170.33033752 C172.28668013 171.35252563 172.28229886 172.37471374 172.27778482 173.42787725 C172.26544987 176.85775474 172.26727399 180.28747958 172.26896667 183.71737671 C172.2629433 186.17476631 172.25601927 188.63215384 172.2482605 191.08953857 C172.23336096 196.38456704 172.22439689 201.6795555 172.22055054 206.97459984 C172.21479737 214.64121118 172.19620063 222.30775107 172.17411 229.97433082 C172.13839183 242.4275675 172.11008022 254.88080823 172.08781433 267.33407593 C172.08647934 268.07926962 172.08514435 268.82446332 172.0837689 269.59223864 C172.07434437 274.87980061 172.0651826 280.16736302 172.05607605 285.45492554 C172.04568399 291.48625726 172.03516473 297.51758872 172.02433777 303.54891968 C172.02300703 304.29168792 172.02167628 305.03445616 172.02030522 305.79973253 C171.99784656 318.20071571 171.96763602 330.60166854 171.93194532 343.00262052 C171.9103235 350.64574781 171.89567177 358.28882781 171.89010656 365.93198399 C171.88534282 371.79503335 171.87053603 377.65803008 171.85210609 383.52105331 C171.84623927 385.92117411 171.84375597 388.32130597 171.84494591 390.72143364 C171.84610925 394.0042499 171.8350547 397.2868135 171.8210907 400.56959534 C171.82603916 401.98572885 171.82603916 401.98572885 171.83108759 403.43047112 C171.77210188 411.86514146 170.65547827 419.74759994 166.93107605 427.39242554 C166.48506042 428.32312866 166.0390448 429.25383179 165.57951355 430.21273804 C165.24177917 430.89078491 164.9040448 431.56883179 164.55607605 432.26742554 C171.83248777 432.31398292 179.10886681 432.34941271 186.38539791 432.37104988 C189.76501708 432.38144017 193.14453354 432.3955112 196.52409363 432.41830444 C200.41889616 432.44267832 204.31355467 432.45393757 208.2084198 432.46273804 C210.00895058 432.47822189 210.00895058 432.47822189 211.84585571 432.49401855 C221.48449553 432.49529521 231.07191443 432.02832784 238.55607605 425.26742554 C245.17820537 416.77382489 245.70742185 408.71844047 245.68978882 398.2989502 C245.69318715 396.81717437 245.69318715 396.81717437 245.69665414 395.30546367 C245.70297122 392.00387258 245.70216625 388.70232278 245.70133972 385.40072632 C245.70433261 383.03008979 245.70773545 380.65945376 245.71151733 378.28881836 C245.72034763 371.85494687 245.72269502 365.42108867 245.72333312 358.9872117 C245.72382773 354.966702 245.72611527 350.94619462 245.72883034 346.92568588 C245.7376317 333.62095031 245.74225045 320.31622279 245.74149986 307.01148428 C245.74143993 305.93668839 245.74143993 305.93668839 245.74137878 304.84017944 C245.74131746 303.76406524 245.74131746 303.76406524 245.7412549 302.66621135 C245.74084844 291.03944145 245.75041932 279.41270394 245.76451715 267.7859434 C245.77889232 255.83579489 245.78578673 243.88566217 245.78492337 231.93550479 C245.78459183 225.23113863 245.78751581 218.52681152 245.79810143 211.82245255 C245.80778544 205.51710875 245.80785944 199.21183666 245.80058479 192.90649033 C245.79953938 190.5946314 245.80189925 188.282768 245.80794525 185.97091675 C245.8156741 182.81048311 245.81101432 179.65029657 245.80331421 176.48986816 C245.80845777 175.57924909 245.81360134 174.66863001 245.81890076 173.73041642 C245.77240397 165.06979568 244.23745009 157.90963176 240.1771698 150.20492554 C239.68453392 149.2595266 239.68453392 149.2595266 239.1819458 148.29502869 C238.12910597 146.28041827 237.06169803 144.27396811 235.99357605 142.26742554 C235.26609143 140.88241145 234.53953259 139.4969107 233.81388855 138.1109314 C232.05445207 134.7561214 230.28345363 131.4076075 228.50743103 128.06155396 C227.16518431 125.53025593 225.83133223 122.99456224 224.4974823 120.45883179 C222.5288665 116.72195101 220.54829724 112.99177238 218.55607605 109.26742554 C218.22607605 109.26742554 217.89607605 109.26742554 217.55607605 109.26742554 C217.5479892 110.25856857 217.53990234 111.24971161 217.53157043 112.27088928 C217.45406574 121.61419725 217.36631544 130.95736037 217.26854897 140.30047894 C217.21861583 145.10380353 217.17228546 149.90710646 217.13420105 154.71054077 C217.09731066 159.34663309 217.05094037 163.98254277 216.99801254 168.61847878 C216.97948857 170.38665371 216.96437323 172.15486778 216.95273209 173.92310143 C216.93583546 176.40094049 216.90679233 178.87836308 216.87492371 181.35604858 C216.87276352 182.08613129 216.87060333 182.81621399 216.86837769 183.56842041 C216.80310651 187.54430959 216.4440532 190.73425286 214.55607605 194.26742554 C211.44057733 195.8251749 207.95163725 195.83223176 204.55607605 195.26742554 C202.95980835 194.25013733 202.95980835 194.25013733 201.55607605 192.26742554 C201.24643099 189.51076568 201.1185916 186.97510203 201.123703 184.21591187 C201.10841553 182.98630486 201.10841553 182.98630486 201.09281921 181.7318573 C201.06261291 179.0209883 201.05341173 176.31047219 201.0443573 173.59945679 C201.02751626 171.72043171 201.0093668 169.84141793 200.98995972 167.9624176 C200.94239114 163.01572197 200.91262618 158.06907216 200.88652039 153.1222229 C200.85674942 148.07482856 200.81020723 143.02759225 200.76506042 137.98031616 C200.67894932 128.07610183 200.6116388 118.17185504 200.55607605 108.26742554 C200.22607605 108.26742554 199.89607605 108.26742554 199.55607605 108.26742554 Z " fill="#000000" transform="translate(160.4439239501953,31.732574462890625)"/>
<path d="M0 0 C2.34845359 1.76463242 4.49147784 3.64108785 6.65234375 5.6328125 C7.18504883 6.12023926 7.71775391 6.60766602 8.26660156 7.10986328 C11.31533395 9.90355263 14.34054382 12.72018098 17.34765625 15.55859375 C19.853719 17.91378274 22.42858793 20.14056794 25.08984375 22.3203125 C31.31403942 27.68784468 37.0495792 35.28502931 37.98828125 43.61328125 C38.10773463 53.42040339 36.42113138 61.8112076 29.44921875 69.09375 C22.34458545 75.17902287 15.23992693 76.49081659 6.015625 76.078125 C0.55694957 75.64420803 -4.66914741 74.30527857 -9.97314453 73.00195312 C-18.28218131 71.02903115 -24.86810055 71.92121935 -33.03515625 74.1953125 C-41.91370123 76.5159725 -52.25743578 77.51465668 -60.84765625 73.6953125 C-68.04257101 69.38807011 -73.75529239 63.14082692 -75.94921875 54.94921875 C-77.2204435 47.558667 -76.92739692 40.33901499 -73.34765625 33.6328125 C-71.09586861 30.58217639 -68.56710645 27.88400616 -65.89648438 25.19628906 C-64.09537836 23.37814863 -62.32454349 21.53231799 -60.55078125 19.6875 C-46.82286832 5.54354007 -46.82286832 5.54354007 -38.34765625 0.6328125 C-37.65414062 0.22933594 -36.960625 -0.17414063 -36.24609375 -0.58984375 C-24.3986389 -6.97100186 -11.81484059 -6.8805228 0 0 Z M-50.88671875 34.98828125 C-52.81525541 37.15917413 -55.08525576 38.82289211 -57.34765625 40.6328125 C-59.63619619 43.90215528 -59.81927843 46.7026277 -59.34765625 50.6328125 C-57.30771717 54.2906343 -55.84346363 56.30227424 -52.34765625 58.6328125 C-46.69057958 59.37997357 -41.4617365 58.79224501 -36.03515625 57.1328125 C-24.34323657 53.91906495 -10.15410451 54.1091508 1.3359375 57.9453125 C6.00136273 59.32999183 11.15588687 59.95715243 15.57421875 57.61328125 C18.2514039 55.50340438 19.57073167 53.87764873 20.65234375 50.6328125 C21.14081231 46.31800687 21.09035714 44.28983258 18.65234375 40.6328125 C15.8827083 37.67540516 12.77330394 35.10298246 9.6875 32.484375 C7.66808157 30.64713059 5.9595419 28.7296887 4.21484375 26.6328125 C-1.4583349 19.97748903 -8.60117659 13.74062927 -17.46484375 12.28515625 C-31.41687674 11.3437561 -42.72687848 25.21637498 -50.88671875 34.98828125 Z " fill="#000000" transform="translate(230.34765625,284.3671875)"/>
<path d="M0 0 C5.40679638 6.72196307 5.65473937 11.99610463 5.7109375 20.47265625 C5.10029194 25.68709037 3.19397583 28.90957409 -0.3125 32.75 C-4.61043816 35.45610921 -7.7340213 35.85470836 -12.6875 34.875 C-17.69523559 32.04454075 -19.72670702 28.01941337 -21.375 22.625 C-22.26109721 14.82734451 -22.40272939 8.482425 -17.6875 1.875 C-12.23559879 -3.44060368 -6.37902294 -5.0438786 0 0 Z " fill="#000000" transform="translate(239.6875,226.125)"/>
<path d="M0 0 C4.7372764 2.9745689 6.97629506 6.55921394 8.5625 11.890625 C9.97911068 18.72071221 9.57427525 25.90684574 6 32 C1.59287961 36.19213891 -1.6861114 37.52869476 -7.67578125 37.48046875 C-11.22245432 36.74729096 -12.67092326 34.8149465 -14.80859375 32.01953125 C-17.5843494 27.3143979 -18.29468278 23.53238805 -18.3125 18.0625 C-18.32925781 16.87785156 -18.34601563 15.69320312 -18.36328125 14.47265625 C-17.89397526 9.98649467 -16.5549122 6.70473447 -13.5 3.35546875 C-8.66398667 -0.41007288 -6.00332472 -1.56086443 0 0 Z " fill="#000000" transform="translate(195,224)"/>
<path d="M0 0 C4.80578882 0.05484495 4.80578882 0.05484495 7.6875 2 C11.70138629 8.18807469 11.92889836 14.10903689 11.1875 21.3125 C9.62039303 26.96255595 7.03041424 31.86864988 2.1875 35.3125 C-1.54928698 36.54425571 -5.0146485 37.18095369 -8.65625 35.421875 C-11.94868537 32.87185153 -13.91746802 30.34014393 -14.8125 26.3125 C-15.70580338 18.49609543 -14.45025763 10.9231463 -9.46875 4.609375 C-8.125 3.25 -8.125 3.25 -5.8125 1.3125 C-4.16284831 -0.33715169 -2.2648645 0.06300502 0 0 Z " fill="#000000" transform="translate(264.8125,252.6875)"/>
<path d="M0 0 C6.25127772 5.08077099 9.34852207 11.45784971 10.27734375 19.359375 C10.48466978 24.30202748 9.82899061 27.80528978 7 32 C4.21548202 34.93921342 2.62018216 35.88515145 -1.375 36.625 C-6.33564012 35.76971722 -8.86056136 33.88544387 -12 30 C-16.12218455 23.16202327 -17.12261288 15.85829018 -16 8 C-12.61424773 0.85230076 -7.82364638 -2.56291864 0 0 Z " fill="#000000" transform="translate(162,253)"/>
</svg>
