<svg width="120" height="40" viewBox="0 0 120 40" fill="none" xmlns="http://www.w3.org/2000/svg">
  <path d="M20 10C25.5228 10 30 14.4772 30 20C30 25.5228 25.5228 30 20 30C14.4772 30 10 25.5228 10 20C10 14.4772 14.4772 10 20 10Z" fill="#3B82F6"/>
  <path d="M15 17.5C16.3807 17.5 17.5 16.3807 17.5 15C17.5 13.6193 16.3807 12.5 15 12.5C13.6193 12.5 12.5 13.6193 12.5 15C12.5 16.3807 13.6193 17.5 15 17.5Z" fill="white"/>
  <path d="M25 17.5C26.3807 17.5 27.5 16.3807 27.5 15C27.5 13.6193 26.3807 12.5 25 12.5C23.6193 12.5 22.5 13.6193 22.5 15C22.5 16.3807 23.6193 17.5 25 17.5Z" fill="white"/>
  <path d="M15 27.5C16.3807 27.5 17.5 26.3807 17.5 25C17.5 23.6193 16.3807 22.5 15 22.5C13.6193 22.5 12.5 23.6193 12.5 25C12.5 26.3807 13.6193 27.5 15 27.5Z" fill="white"/>
  <path d="M25 27.5C26.3807 27.5 27.5 26.3807 27.5 25C27.5 23.6193 26.3807 22.5 25 22.5C23.6193 22.5 22.5 23.6193 22.5 25C22.5 26.3807 23.6193 27.5 25 27.5Z" fill="white"/>
  <path d="M40 15H45.5L50 25L54.5 15H60V30H56V20L51.5 30H48.5L44 20V30H40V15Z" fill="#3B82F6"/>
  <path d="M62 15H68C73 15 76 18 76 22.5C76 27 73 30 68 30H62V15ZM68 26.5C70.5 26.5 72 25 72 22.5C72 20 70.5 18.5 68 18.5H66V26.5H68Z" fill="#3B82F6"/>
  <path d="M78 15H89V18.5H82V20.5H88V24H82V26.5H89V30H78V15Z" fill="#3B82F6"/>
  <path d="M91 15H102V18.5H95V20.5H101V24H95V26.5H102V30H91V15Z" fill="#3B82F6"/>
  <path d="M104 15H110C115 15 118 18 118 22.5C118 27 115 30 110 30H104V15ZM110 26.5C112.5 26.5 114 25 114 22.5C114 20 112.5 18.5 110 18.5H108V26.5H110Z" fill="#3B82F6"/>
</svg>